solid body
   facet normal 0.000000e+00 0.000000e+00 -1.000000e+00
      outer loop
         vertex 2.000000e-02 8.800000e-02 -1.900000e-01
         vertex 2.000000e-02 1.225000e-01 -1.900000e-01
         vertex 6.500000e-02 1.225000e-01 -1.900000e-01
      endloop
   endfacet
   facet normal 0.000000e+00 0.000000e+00 -1.000000e+00
      outer loop
         vertex 6.500000e-02 -1.225000e-01 -1.900000e-01
         vertex 2.000000e-02 -1.225000e-01 -1.900000e-01
         vertex 2.000000e-02 -8.800000e-02 -1.900000e-01
      endloop
   endfacet
   facet normal 0.000000e+00 0.000000e+00 -1.000000e+00
      outer loop
         vertex 8.500000e-03 -8.800000e-02 -1.900000e-01
         vertex 8.500000e-03 8.800000e-02 -1.900000e-01
         vertex 2.000000e-02 -8.800000e-02 -1.900000e-01
      endloop
   endfacet
   facet normal 0.000000e+00 0.000000e+00 -1.000000e+00
      outer loop
         vertex 2.000000e-02 -8.800000e-02 -1.900000e-01
         vertex 8.500000e-03 8.800000e-02 -1.900000e-01
         vertex 2.000000e-02 8.800000e-02 -1.900000e-01
      endloop
   endfacet
   facet normal 0.000000e+00 0.000000e+00 -1.000000e+00
      outer loop
         vertex 2.000000e-02 -8.800000e-02 -1.900000e-01
         vertex 2.000000e-02 8.800000e-02 -1.900000e-01
         vertex 6.500000e-02 -1.225000e-01 -1.900000e-01
      endloop
   endfacet
   facet normal 0.000000e+00 0.000000e+00 -1.000000e+00
      outer loop
         vertex 6.500000e-02 -1.225000e-01 -1.900000e-01
         vertex 2.000000e-02 8.800000e-02 -1.900000e-01
         vertex 6.500000e-02 1.225000e-01 -1.900000e-01
      endloop
   endfacet
   facet normal 0.000000e+00 -0.000000e+00 -1.000000e+00
      outer loop
         vertex -2.000000e-02 -8.800000e-02 -1.900000e-01
         vertex -2.000000e-02 -1.225000e-01 -1.900000e-01
         vertex -6.500000e-02 -1.225000e-01 -1.900000e-01
      endloop
   endfacet
   facet normal 0.000000e+00 0.000000e+00 -1.000000e+00
      outer loop
         vertex -6.500000e-02 1.225000e-01 -1.900000e-01
         vertex -2.000000e-02 1.225000e-01 -1.900000e-01
         vertex -2.000000e-02 8.800000e-02 -1.900000e-01
      endloop
   endfacet
   facet normal -0.000000e+00 -0.000000e+00 -1.000000e+00
      outer loop
         vertex -8.500000e-03 8.800000e-02 -1.900000e-01
         vertex -8.500000e-03 -8.800000e-02 -1.900000e-01
         vertex -2.000000e-02 8.800000e-02 -1.900000e-01
      endloop
   endfacet
   facet normal 0.000000e+00 0.000000e+00 -1.000000e+00
      outer loop
         vertex -2.000000e-02 8.800000e-02 -1.900000e-01
         vertex -8.500000e-03 -8.800000e-02 -1.900000e-01
         vertex -2.000000e-02 -8.800000e-02 -1.900000e-01
      endloop
   endfacet
   facet normal -0.000000e+00 -0.000000e+00 -1.000000e+00
      outer loop
         vertex -2.000000e-02 8.800000e-02 -1.900000e-01
         vertex -2.000000e-02 -8.800000e-02 -1.900000e-01
         vertex -6.500000e-02 1.225000e-01 -1.900000e-01
      endloop
   endfacet
   facet normal 0.000000e+00 0.000000e+00 -1.000000e+00
      outer loop
         vertex -6.500000e-02 1.225000e-01 -1.900000e-01
         vertex -2.000000e-02 -8.800000e-02 -1.900000e-01
         vertex -6.500000e-02 -1.225000e-01 -1.900000e-01
      endloop
   endfacet
   facet normal 0.000000e+00 -1.000000e+00 0.000000e+00
      outer loop
         vertex -6.500000e-02 -1.225000e-01 -1.900000e-01
         vertex -2.000000e-02 -1.225000e-01 -1.900000e-01
         vertex -2.000000e-02 -1.225000e-01 -1.700000e-01
      endloop
   endfacet
   facet normal 0.000000e+00 -1.000000e+00 0.000000e+00
      outer loop
         vertex 2.000000e-02 -1.225000e-01 -1.900000e-01
         vertex 6.500000e-02 -1.225000e-01 -1.900000e-01
         vertex 2.000000e-02 -1.225000e-01 -1.700000e-01
      endloop
   endfacet
   facet normal 0.000000e+00 -1.000000e+00 0.000000e+00
      outer loop
         vertex 2.000000e-02 -1.225000e-01 -1.700000e-01
         vertex 6.500000e-02 -1.225000e-01 -1.900000e-01
         vertex 6.500000e-02 -1.225000e-01 1.900000e-01
      endloop
   endfacet
   facet normal 0.000000e+00 -1.000000e+00 0.000000e+00
      outer loop
         vertex 2.000000e-02 -1.225000e-01 -1.700000e-01
         vertex 6.500000e-02 -1.225000e-01 1.900000e-01
         vertex -2.000000e-02 -1.225000e-01 -1.700000e-01
      endloop
   endfacet
   facet normal 0.000000e+00 -1.000000e+00 0.000000e+00
      outer loop
         vertex -2.000000e-02 -1.225000e-01 -1.700000e-01
         vertex 6.500000e-02 -1.225000e-01 1.900000e-01
         vertex -6.500000e-02 -1.225000e-01 1.900000e-01
      endloop
   endfacet
   facet normal -0.000000e+00 -1.000000e+00 0.000000e+00
      outer loop
         vertex -2.000000e-02 -1.225000e-01 -1.700000e-01
         vertex -6.500000e-02 -1.225000e-01 1.900000e-01
         vertex -6.500000e-02 -1.225000e-01 -1.900000e-01
      endloop
   endfacet
   facet normal 0.000000e+00 0.000000e+00 1.000000e+00
      outer loop
         vertex 6.500000e-02 1.225000e-01 1.900000e-01
         vertex -6.500000e-02 1.225000e-01 1.900000e-01
         vertex 6.500000e-02 -1.225000e-01 1.900000e-01
      endloop
   endfacet
   facet normal 0.000000e+00 0.000000e+00 1.000000e+00
      outer loop
         vertex 6.500000e-02 -1.225000e-01 1.900000e-01
         vertex -6.500000e-02 1.225000e-01 1.900000e-01
         vertex -6.500000e-02 -1.225000e-01 1.900000e-01
      endloop
   endfacet
   facet normal 0.000000e+00 1.000000e+00 0.000000e+00
      outer loop
         vertex 6.500000e-02 1.225000e-01 -1.900000e-01
         vertex 2.000000e-02 1.225000e-01 -1.900000e-01
         vertex 2.000000e-02 1.225000e-01 -1.700000e-01
      endloop
   endfacet
   facet normal 0.000000e+00 1.000000e+00 -0.000000e+00
      outer loop
         vertex -2.000000e-02 1.225000e-01 -1.900000e-01
         vertex -6.500000e-02 1.225000e-01 -1.900000e-01
         vertex -2.000000e-02 1.225000e-01 -1.700000e-01
      endloop
   endfacet
   facet normal 0.000000e+00 1.000000e+00 0.000000e+00
      outer loop
         vertex -2.000000e-02 1.225000e-01 -1.700000e-01
         vertex -6.500000e-02 1.225000e-01 -1.900000e-01
         vertex -6.500000e-02 1.225000e-01 1.900000e-01
      endloop
   endfacet
   facet normal 0.000000e+00 1.000000e+00 -0.000000e+00
      outer loop
         vertex -2.000000e-02 1.225000e-01 -1.700000e-01
         vertex -6.500000e-02 1.225000e-01 1.900000e-01
         vertex 2.000000e-02 1.225000e-01 -1.700000e-01
      endloop
   endfacet
   facet normal 0.000000e+00 1.000000e+00 -0.000000e+00
      outer loop
         vertex 2.000000e-02 1.225000e-01 -1.700000e-01
         vertex -6.500000e-02 1.225000e-01 1.900000e-01
         vertex 6.500000e-02 1.225000e-01 1.900000e-01
      endloop
   endfacet
   facet normal -0.000000e+00 1.000000e+00 0.000000e+00
      outer loop
         vertex 2.000000e-02 1.225000e-01 -1.700000e-01
         vertex 6.500000e-02 1.225000e-01 1.900000e-01
         vertex 6.500000e-02 1.225000e-01 -1.900000e-01
      endloop
   endfacet
   facet normal -1.000000e+00 0.000000e+00 0.000000e+00
      outer loop
         vertex -6.500000e-02 -1.225000e-01 1.900000e-01
         vertex -6.500000e-02 1.225000e-01 1.900000e-01
         vertex -6.500000e-02 -1.225000e-01 -1.900000e-01
      endloop
   endfacet
   facet normal -1.000000e+00 0.000000e+00 0.000000e+00
      outer loop
         vertex -6.500000e-02 -1.225000e-01 -1.900000e-01
         vertex -6.500000e-02 1.225000e-01 1.900000e-01
         vertex -6.500000e-02 1.225000e-01 -1.900000e-01
      endloop
   endfacet
   facet normal 1.000000e+00 0.000000e+00 0.000000e+00
      outer loop
         vertex 6.500000e-02 1.225000e-01 1.900000e-01
         vertex 6.500000e-02 -1.225000e-01 1.900000e-01
         vertex 6.500000e-02 1.225000e-01 -1.900000e-01
      endloop
   endfacet
   facet normal 1.000000e+00 0.000000e+00 0.000000e+00
      outer loop
         vertex 6.500000e-02 1.225000e-01 -1.900000e-01
         vertex 6.500000e-02 -1.225000e-01 1.900000e-01
         vertex 6.500000e-02 -1.225000e-01 -1.900000e-01
      endloop
   endfacet
   facet normal 1.000000e+00 0.000000e+00 0.000000e+00
      outer loop
         vertex 2.000000e-02 -1.225000e-01 -1.700000e-01
         vertex 2.000000e-02 -1.480000e-01 -1.700000e-01
         vertex 2.000000e-02 -1.225000e-01 -1.900000e-01
      endloop
   endfacet
   facet normal 1.000000e+00 0.000000e+00 0.000000e+00
      outer loop
         vertex 2.000000e-02 -1.225000e-01 -1.900000e-01
         vertex 2.000000e-02 -1.480000e-01 -1.700000e-01
         vertex 2.000000e-02 -1.480000e-01 -2.100000e-01
      endloop
   endfacet
   facet normal 1.000000e+00 -0.000000e+00 0.000000e+00
      outer loop
         vertex 2.000000e-02 -1.225000e-01 -1.900000e-01
         vertex 2.000000e-02 -1.480000e-01 -2.100000e-01
         vertex 2.000000e-02 -8.800000e-02 -1.900000e-01
      endloop
   endfacet
   facet normal 1.000000e+00 0.000000e+00 0.000000e+00
      outer loop
         vertex 2.000000e-02 -8.800000e-02 -1.900000e-01
         vertex 2.000000e-02 -1.480000e-01 -2.100000e-01
         vertex 2.000000e-02 -8.800000e-02 -2.100000e-01
      endloop
   endfacet
   facet normal 0.000000e+00 0.000000e+00 1.000000e+00
      outer loop
         vertex -2.000000e-02 -1.480000e-01 -1.700000e-01
         vertex 2.000000e-02 -1.480000e-01 -1.700000e-01
         vertex -2.000000e-02 -1.225000e-01 -1.700000e-01
      endloop
   endfacet
   facet normal -0.000000e+00 0.000000e+00 1.000000e+00
      outer loop
         vertex -2.000000e-02 -1.225000e-01 -1.700000e-01
         vertex 2.000000e-02 -1.480000e-01 -1.700000e-01
         vertex 2.000000e-02 -1.225000e-01 -1.700000e-01
      endloop
   endfacet
   facet normal -1.000000e+00 -0.000000e+00 -0.000000e+00
      outer loop
         vertex -2.000000e-02 -8.800000e-02 -1.900000e-01
         vertex -2.000000e-02 -8.800000e-02 -2.100000e-01
         vertex -2.000000e-02 -1.225000e-01 -1.900000e-01
      endloop
   endfacet
   facet normal -1.000000e+00 0.000000e+00 -0.000000e+00
      outer loop
         vertex -2.000000e-02 -1.225000e-01 -1.900000e-01
         vertex -2.000000e-02 -8.800000e-02 -2.100000e-01
         vertex -2.000000e-02 -1.480000e-01 -2.100000e-01
      endloop
   endfacet
   facet normal -1.000000e+00 -0.000000e+00 0.000000e+00
      outer loop
         vertex -2.000000e-02 -1.225000e-01 -1.900000e-01
         vertex -2.000000e-02 -1.480000e-01 -2.100000e-01
         vertex -2.000000e-02 -1.225000e-01 -1.700000e-01
      endloop
   endfacet
   facet normal -1.000000e+00 -0.000000e+00 0.000000e+00
      outer loop
         vertex -2.000000e-02 -1.225000e-01 -1.700000e-01
         vertex -2.000000e-02 -1.480000e-01 -2.100000e-01
         vertex -2.000000e-02 -1.480000e-01 -1.700000e-01
      endloop
   endfacet
   facet normal -0.000000e+00 -1.000000e+00 0.000000e+00
      outer loop
         vertex -2.907171e-03 -1.480000e-01 -1.979874e-01
         vertex -4.250000e-03 -1.480000e-01 -1.973612e-01
         vertex -2.000000e-02 -1.480000e-01 -2.100000e-01
      endloop
   endfacet
   facet normal -0.000000e+00 -1.000000e+00 0.000000e+00
      outer loop
         vertex -7.361216e-03 -1.480000e-01 -1.942500e-01
         vertex -7.987387e-03 -1.480000e-01 -1.929072e-01
         vertex -2.000000e-02 -1.480000e-01 -2.100000e-01
      endloop
   endfacet
   facet normal 0.000000e+00 -1.000000e+00 0.000000e+00
      outer loop
         vertex -2.000000e-02 -1.480000e-01 -1.700000e-01
         vertex -7.987387e-03 -1.480000e-01 -1.870928e-01
         vertex -7.361216e-03 -1.480000e-01 -1.857500e-01
      endloop
   endfacet
   facet normal 0.000000e+00 -1.000000e+00 0.000000e+00
      outer loop
         vertex -7.361216e-03 -1.480000e-01 -1.857500e-01
         vertex -6.511378e-03 -1.480000e-01 -1.845363e-01
         vertex -2.000000e-02 -1.480000e-01 -1.700000e-01
      endloop
   endfacet
   facet normal 0.000000e+00 -1.000000e+00 0.000000e+00
      outer loop
         vertex -2.000000e-02 -1.480000e-01 -1.700000e-01
         vertex -6.511378e-03 -1.480000e-01 -1.845363e-01
         vertex -5.463695e-03 -1.480000e-01 -1.834886e-01
      endloop
   endfacet
   facet normal 0.000000e+00 -1.000000e+00 0.000000e+00
      outer loop
         vertex -2.000000e-02 -1.480000e-01 -1.700000e-01
         vertex -5.463695e-03 -1.480000e-01 -1.834886e-01
         vertex -4.250000e-03 -1.480000e-01 -1.826388e-01
      endloop
   endfacet
   facet normal -0.000000e+00 -1.000000e+00 0.000000e+00
      outer loop
         vertex -4.250000e-03 -1.480000e-01 -1.973612e-01
         vertex -5.463695e-03 -1.480000e-01 -1.965114e-01
         vertex -2.000000e-02 -1.480000e-01 -2.100000e-01
      endloop
   endfacet
   facet normal 0.000000e+00 -1.000000e+00 0.000000e+00
      outer loop
         vertex -2.000000e-02 -1.480000e-01 -2.100000e-01
         vertex -5.463695e-03 -1.480000e-01 -1.965114e-01
         vertex -6.511378e-03 -1.480000e-01 -1.954637e-01
      endloop
   endfacet
   facet normal 0.000000e+00 -1.000000e+00 0.000000e+00
      outer loop
         vertex -2.000000e-02 -1.480000e-01 -2.100000e-01
         vertex -6.511378e-03 -1.480000e-01 -1.954637e-01
         vertex -7.361216e-03 -1.480000e-01 -1.942500e-01
      endloop
   endfacet
   facet normal 0.000000e+00 -1.000000e+00 -0.000000e+00
      outer loop
         vertex 5.463695e-03 -1.480000e-01 -1.965114e-01
         vertex 4.250000e-03 -1.480000e-01 -1.973612e-01
         vertex 2.000000e-02 -1.480000e-01 -2.100000e-01
      endloop
   endfacet
   facet normal 0.000000e+00 -1.000000e+00 0.000000e+00
      outer loop
         vertex 2.000000e-02 -1.480000e-01 -2.100000e-01
         vertex 4.250000e-03 -1.480000e-01 -1.973612e-01
         vertex 2.907171e-03 -1.480000e-01 -1.979874e-01
      endloop
   endfacet
   facet normal 0.000000e+00 -1.000000e+00 0.000000e+00
      outer loop
         vertex -4.250000e-03 -1.480000e-01 -1.826388e-01
         vertex -2.907171e-03 -1.480000e-01 -1.820126e-01
         vertex -2.000000e-02 -1.480000e-01 -1.700000e-01
      endloop
   endfacet
   facet normal 0.000000e+00 -1.000000e+00 0.000000e+00
      outer loop
         vertex -2.000000e-02 -1.480000e-01 -1.700000e-01
         vertex -2.907171e-03 -1.480000e-01 -1.820126e-01
         vertex -1.476009e-03 -1.480000e-01 -1.816291e-01
      endloop
   endfacet
   facet normal 0.000000e+00 -1.000000e+00 0.000000e+00
      outer loop
         vertex -2.000000e-02 -1.480000e-01 -1.700000e-01
         vertex -1.476009e-03 -1.480000e-01 -1.816291e-01
         vertex 2.000000e-02 -1.480000e-01 -1.700000e-01
      endloop
   endfacet
   facet normal 0.000000e+00 -1.000000e+00 0.000000e+00
      outer loop
         vertex 2.000000e-02 -1.480000e-01 -1.700000e-01
         vertex -1.476009e-03 -1.480000e-01 -1.816291e-01
         vertex 4.512823e-17 -1.480000e-01 -1.815000e-01
      endloop
   endfacet
   facet normal 0.000000e+00 -1.000000e+00 0.000000e+00
      outer loop
         vertex 2.000000e-02 -1.480000e-01 -1.700000e-01
         vertex 4.512823e-17 -1.480000e-01 -1.815000e-01
         vertex 1.476009e-03 -1.480000e-01 -1.816291e-01
      endloop
   endfacet
   facet normal 0.000000e+00 -1.000000e+00 -0.000000e+00
      outer loop
         vertex 2.907171e-03 -1.480000e-01 -1.979874e-01
         vertex 1.476009e-03 -1.480000e-01 -1.983709e-01
         vertex 2.000000e-02 -1.480000e-01 -2.100000e-01
      endloop
   endfacet
   facet normal 0.000000e+00 -1.000000e+00 0.000000e+00
      outer loop
         vertex 2.000000e-02 -1.480000e-01 -2.100000e-01
         vertex 1.476009e-03 -1.480000e-01 -1.983709e-01
         vertex 4.408728e-17 -1.480000e-01 -1.985000e-01
      endloop
   endfacet
   facet normal 0.000000e+00 -1.000000e+00 0.000000e+00
      outer loop
         vertex 2.000000e-02 -1.480000e-01 -2.100000e-01
         vertex 4.408728e-17 -1.480000e-01 -1.985000e-01
         vertex -2.000000e-02 -1.480000e-01 -2.100000e-01
      endloop
   endfacet
   facet normal 0.000000e+00 -1.000000e+00 0.000000e+00
      outer loop
         vertex -2.000000e-02 -1.480000e-01 -2.100000e-01
         vertex 4.408728e-17 -1.480000e-01 -1.985000e-01
         vertex -1.476009e-03 -1.480000e-01 -1.983709e-01
      endloop
   endfacet
   facet normal 0.000000e+00 -1.000000e+00 0.000000e+00
      outer loop
         vertex -2.000000e-02 -1.480000e-01 -2.100000e-01
         vertex -1.476009e-03 -1.480000e-01 -1.983709e-01
         vertex -2.907171e-03 -1.480000e-01 -1.979874e-01
      endloop
   endfacet
   facet normal -0.000000e+00 -1.000000e+00 0.000000e+00
      outer loop
         vertex -7.987387e-03 -1.480000e-01 -1.929072e-01
         vertex -8.370866e-03 -1.480000e-01 -1.914760e-01
         vertex -2.000000e-02 -1.480000e-01 -2.100000e-01
      endloop
   endfacet
   facet normal 0.000000e+00 -1.000000e+00 0.000000e+00
      outer loop
         vertex -2.000000e-02 -1.480000e-01 -2.100000e-01
         vertex -8.370866e-03 -1.480000e-01 -1.914760e-01
         vertex -8.500000e-03 -1.480000e-01 -1.900000e-01
      endloop
   endfacet
   facet normal 0.000000e+00 -1.000000e+00 0.000000e+00
      outer loop
         vertex -2.000000e-02 -1.480000e-01 -2.100000e-01
         vertex -8.500000e-03 -1.480000e-01 -1.900000e-01
         vertex -2.000000e-02 -1.480000e-01 -1.700000e-01
      endloop
   endfacet
   facet normal 0.000000e+00 -1.000000e+00 0.000000e+00
      outer loop
         vertex -2.000000e-02 -1.480000e-01 -1.700000e-01
         vertex -8.500000e-03 -1.480000e-01 -1.900000e-01
         vertex -8.370866e-03 -1.480000e-01 -1.885240e-01
      endloop
   endfacet
   facet normal 0.000000e+00 -1.000000e+00 0.000000e+00
      outer loop
         vertex -2.000000e-02 -1.480000e-01 -1.700000e-01
         vertex -8.370866e-03 -1.480000e-01 -1.885240e-01
         vertex -7.987387e-03 -1.480000e-01 -1.870928e-01
      endloop
   endfacet
   facet normal 0.000000e+00 -1.000000e+00 0.000000e+00
      outer loop
         vertex 1.476009e-03 -1.480000e-01 -1.816291e-01
         vertex 2.907171e-03 -1.480000e-01 -1.820126e-01
         vertex 2.000000e-02 -1.480000e-01 -1.700000e-01
      endloop
   endfacet
   facet normal 0.000000e+00 -1.000000e+00 0.000000e+00
      outer loop
         vertex 2.000000e-02 -1.480000e-01 -1.700000e-01
         vertex 2.907171e-03 -1.480000e-01 -1.820126e-01
         vertex 4.250000e-03 -1.480000e-01 -1.826388e-01
      endloop
   endfacet
   facet normal 0.000000e+00 -1.000000e+00 0.000000e+00
      outer loop
         vertex 2.000000e-02 -1.480000e-01 -1.700000e-01
         vertex 4.250000e-03 -1.480000e-01 -1.826388e-01
         vertex 5.463695e-03 -1.480000e-01 -1.834886e-01
      endloop
   endfacet
   facet normal 0.000000e+00 -1.000000e+00 0.000000e+00
      outer loop
         vertex 5.463695e-03 -1.480000e-01 -1.834886e-01
         vertex 6.511378e-03 -1.480000e-01 -1.845363e-01
         vertex 2.000000e-02 -1.480000e-01 -1.700000e-01
      endloop
   endfacet
   facet normal 0.000000e+00 -1.000000e+00 0.000000e+00
      outer loop
         vertex 2.000000e-02 -1.480000e-01 -1.700000e-01
         vertex 6.511378e-03 -1.480000e-01 -1.845363e-01
         vertex 7.361216e-03 -1.480000e-01 -1.857500e-01
      endloop
   endfacet
   facet normal 0.000000e+00 -1.000000e+00 0.000000e+00
      outer loop
         vertex 2.000000e-02 -1.480000e-01 -1.700000e-01
         vertex 7.361216e-03 -1.480000e-01 -1.857500e-01
         vertex 7.987387e-03 -1.480000e-01 -1.870928e-01
      endloop
   endfacet
   facet normal 0.000000e+00 -1.000000e+00 0.000000e+00
      outer loop
         vertex 7.987387e-03 -1.480000e-01 -1.870928e-01
         vertex 8.370866e-03 -1.480000e-01 -1.885240e-01
         vertex 2.000000e-02 -1.480000e-01 -1.700000e-01
      endloop
   endfacet
   facet normal 0.000000e+00 -1.000000e+00 0.000000e+00
      outer loop
         vertex 2.000000e-02 -1.480000e-01 -1.700000e-01
         vertex 8.370866e-03 -1.480000e-01 -1.885240e-01
         vertex 8.500000e-03 -1.480000e-01 -1.900000e-01
      endloop
   endfacet
   facet normal 0.000000e+00 -1.000000e+00 -0.000000e+00
      outer loop
         vertex 2.000000e-02 -1.480000e-01 -1.700000e-01
         vertex 8.500000e-03 -1.480000e-01 -1.900000e-01
         vertex 2.000000e-02 -1.480000e-01 -2.100000e-01
      endloop
   endfacet
   facet normal 0.000000e+00 -1.000000e+00 0.000000e+00
      outer loop
         vertex 2.000000e-02 -1.480000e-01 -2.100000e-01
         vertex 8.500000e-03 -1.480000e-01 -1.900000e-01
         vertex 8.370866e-03 -1.480000e-01 -1.914760e-01
      endloop
   endfacet
   facet normal 0.000000e+00 -1.000000e+00 0.000000e+00
      outer loop
         vertex 2.000000e-02 -1.480000e-01 -2.100000e-01
         vertex 8.370866e-03 -1.480000e-01 -1.914760e-01
         vertex 7.987387e-03 -1.480000e-01 -1.929072e-01
      endloop
   endfacet
   facet normal 0.000000e+00 -1.000000e+00 -0.000000e+00
      outer loop
         vertex 7.987387e-03 -1.480000e-01 -1.929072e-01
         vertex 7.361216e-03 -1.480000e-01 -1.942500e-01
         vertex 2.000000e-02 -1.480000e-01 -2.100000e-01
      endloop
   endfacet
   facet normal 0.000000e+00 -1.000000e+00 0.000000e+00
      outer loop
         vertex 2.000000e-02 -1.480000e-01 -2.100000e-01
         vertex 7.361216e-03 -1.480000e-01 -1.942500e-01
         vertex 6.511378e-03 -1.480000e-01 -1.954637e-01
      endloop
   endfacet
   facet normal 0.000000e+00 -1.000000e+00 0.000000e+00
      outer loop
         vertex 2.000000e-02 -1.480000e-01 -2.100000e-01
         vertex 6.511378e-03 -1.480000e-01 -1.954637e-01
         vertex 5.463695e-03 -1.480000e-01 -1.965114e-01
      endloop
   endfacet
   facet normal 0.000000e+00 1.000000e+00 0.000000e+00
      outer loop
         vertex 8.370866e-03 -8.800000e-02 -1.914760e-01
         vertex 8.500000e-03 -8.800000e-02 -1.900000e-01
         vertex 2.000000e-02 -8.800000e-02 -1.900000e-01
      endloop
   endfacet
   facet normal 0.000000e+00 1.000000e+00 0.000000e+00
      outer loop
         vertex -8.500000e-03 -8.800000e-02 -1.900000e-01
         vertex -8.370866e-03 -8.800000e-02 -1.914760e-01
         vertex -2.000000e-02 -8.800000e-02 -1.900000e-01
      endloop
   endfacet
   facet normal 0.000000e+00 1.000000e+00 0.000000e+00
      outer loop
         vertex -2.000000e-02 -8.800000e-02 -1.900000e-01
         vertex -8.370866e-03 -8.800000e-02 -1.914760e-01
         vertex -7.987387e-03 -8.800000e-02 -1.929072e-01
      endloop
   endfacet
   facet normal 0.000000e+00 1.000000e+00 0.000000e+00
      outer loop
         vertex -2.000000e-02 -8.800000e-02 -1.900000e-01
         vertex -7.987387e-03 -8.800000e-02 -1.929072e-01
         vertex -2.000000e-02 -8.800000e-02 -2.100000e-01
      endloop
   endfacet
   facet normal 0.000000e+00 1.000000e+00 0.000000e+00
      outer loop
         vertex -2.000000e-02 -8.800000e-02 -2.100000e-01
         vertex -7.987387e-03 -8.800000e-02 -1.929072e-01
         vertex -7.361216e-03 -8.800000e-02 -1.942500e-01
      endloop
   endfacet
   facet normal 0.000000e+00 1.000000e+00 0.000000e+00
      outer loop
         vertex -7.361216e-03 -8.800000e-02 -1.942500e-01
         vertex -6.511378e-03 -8.800000e-02 -1.954637e-01
         vertex -2.000000e-02 -8.800000e-02 -2.100000e-01
      endloop
   endfacet
   facet normal 0.000000e+00 1.000000e+00 0.000000e+00
      outer loop
         vertex -2.000000e-02 -8.800000e-02 -2.100000e-01
         vertex -6.511378e-03 -8.800000e-02 -1.954637e-01
         vertex -5.463695e-03 -8.800000e-02 -1.965114e-01
      endloop
   endfacet
   facet normal 0.000000e+00 1.000000e+00 0.000000e+00
      outer loop
         vertex -2.000000e-02 -8.800000e-02 -2.100000e-01
         vertex -5.463695e-03 -8.800000e-02 -1.965114e-01
         vertex -4.250000e-03 -8.800000e-02 -1.973612e-01
      endloop
   endfacet
   facet normal 0.000000e+00 1.000000e+00 0.000000e+00
      outer loop
         vertex -4.250000e-03 -8.800000e-02 -1.973612e-01
         vertex -2.907171e-03 -8.800000e-02 -1.979874e-01
         vertex -2.000000e-02 -8.800000e-02 -2.100000e-01
      endloop
   endfacet
   facet normal 0.000000e+00 1.000000e+00 0.000000e+00
      outer loop
         vertex -2.000000e-02 -8.800000e-02 -2.100000e-01
         vertex -2.907171e-03 -8.800000e-02 -1.979874e-01
         vertex -1.476009e-03 -8.800000e-02 -1.983709e-01
      endloop
   endfacet
   facet normal 0.000000e+00 1.000000e+00 0.000000e+00
      outer loop
         vertex -2.000000e-02 -8.800000e-02 -2.100000e-01
         vertex -1.476009e-03 -8.800000e-02 -1.983709e-01
         vertex 2.000000e-02 -8.800000e-02 -2.100000e-01
      endloop
   endfacet
   facet normal 0.000000e+00 1.000000e+00 0.000000e+00
      outer loop
         vertex 2.000000e-02 -8.800000e-02 -2.100000e-01
         vertex -1.476009e-03 -8.800000e-02 -1.983709e-01
         vertex 4.510281e-17 -8.800000e-02 -1.985000e-01
      endloop
   endfacet
   facet normal 0.000000e+00 1.000000e+00 0.000000e+00
      outer loop
         vertex 2.000000e-02 -8.800000e-02 -2.100000e-01
         vertex 4.510281e-17 -8.800000e-02 -1.985000e-01
         vertex 1.476009e-03 -8.800000e-02 -1.983709e-01
      endloop
   endfacet
   facet normal -0.000000e+00 1.000000e+00 0.000000e+00
      outer loop
         vertex 1.476009e-03 -8.800000e-02 -1.983709e-01
         vertex 2.907171e-03 -8.800000e-02 -1.979874e-01
         vertex 2.000000e-02 -8.800000e-02 -2.100000e-01
      endloop
   endfacet
   facet normal 0.000000e+00 1.000000e+00 0.000000e+00
      outer loop
         vertex 2.000000e-02 -8.800000e-02 -2.100000e-01
         vertex 2.907171e-03 -8.800000e-02 -1.979874e-01
         vertex 4.250000e-03 -8.800000e-02 -1.973612e-01
      endloop
   endfacet
   facet normal 0.000000e+00 1.000000e+00 0.000000e+00
      outer loop
         vertex 2.000000e-02 -8.800000e-02 -2.100000e-01
         vertex 4.250000e-03 -8.800000e-02 -1.973612e-01
         vertex 5.463695e-03 -8.800000e-02 -1.965114e-01
      endloop
   endfacet
   facet normal -0.000000e+00 1.000000e+00 0.000000e+00
      outer loop
         vertex 5.463695e-03 -8.800000e-02 -1.965114e-01
         vertex 6.511378e-03 -8.800000e-02 -1.954637e-01
         vertex 2.000000e-02 -8.800000e-02 -2.100000e-01
      endloop
   endfacet
   facet normal 0.000000e+00 1.000000e+00 0.000000e+00
      outer loop
         vertex 2.000000e-02 -8.800000e-02 -2.100000e-01
         vertex 6.511378e-03 -8.800000e-02 -1.954637e-01
         vertex 7.361216e-03 -8.800000e-02 -1.942500e-01
      endloop
   endfacet
   facet normal 0.000000e+00 1.000000e+00 -0.000000e+00
      outer loop
         vertex 2.000000e-02 -8.800000e-02 -2.100000e-01
         vertex 7.361216e-03 -8.800000e-02 -1.942500e-01
         vertex 2.000000e-02 -8.800000e-02 -1.900000e-01
      endloop
   endfacet
   facet normal 0.000000e+00 1.000000e+00 0.000000e+00
      outer loop
         vertex 2.000000e-02 -8.800000e-02 -1.900000e-01
         vertex 7.361216e-03 -8.800000e-02 -1.942500e-01
         vertex 7.987387e-03 -8.800000e-02 -1.929072e-01
      endloop
   endfacet
   facet normal 0.000000e+00 1.000000e+00 0.000000e+00
      outer loop
         vertex 2.000000e-02 -8.800000e-02 -1.900000e-01
         vertex 7.987387e-03 -8.800000e-02 -1.929072e-01
         vertex 8.370866e-03 -8.800000e-02 -1.914760e-01
      endloop
   endfacet
   facet normal -0.000000e+00 -0.000000e+00 -1.000000e+00
      outer loop
         vertex 2.000000e-02 -8.800000e-02 -2.100000e-01
         vertex 2.000000e-02 -1.480000e-01 -2.100000e-01
         vertex -2.000000e-02 -8.800000e-02 -2.100000e-01
      endloop
   endfacet
   facet normal 0.000000e+00 0.000000e+00 -1.000000e+00
      outer loop
         vertex -2.000000e-02 -8.800000e-02 -2.100000e-01
         vertex 2.000000e-02 -1.480000e-01 -2.100000e-01
         vertex -2.000000e-02 -1.480000e-01 -2.100000e-01
      endloop
   endfacet
   facet normal 1.000000e+00 -0.000000e+00 0.000000e+00
      outer loop
         vertex 2.000000e-02 8.800000e-02 -1.900000e-01
         vertex 2.000000e-02 8.800000e-02 -2.100000e-01
         vertex 2.000000e-02 1.225000e-01 -1.900000e-01
      endloop
   endfacet
   facet normal 1.000000e+00 0.000000e+00 0.000000e+00
      outer loop
         vertex 2.000000e-02 1.225000e-01 -1.900000e-01
         vertex 2.000000e-02 8.800000e-02 -2.100000e-01
         vertex 2.000000e-02 1.480000e-01 -2.100000e-01
      endloop
   endfacet
   facet normal 1.000000e+00 -0.000000e+00 0.000000e+00
      outer loop
         vertex 2.000000e-02 1.225000e-01 -1.900000e-01
         vertex 2.000000e-02 1.480000e-01 -2.100000e-01
         vertex 2.000000e-02 1.225000e-01 -1.700000e-01
      endloop
   endfacet
   facet normal 1.000000e+00 -0.000000e+00 0.000000e+00
      outer loop
         vertex 2.000000e-02 1.225000e-01 -1.700000e-01
         vertex 2.000000e-02 1.480000e-01 -2.100000e-01
         vertex 2.000000e-02 1.480000e-01 -1.700000e-01
      endloop
   endfacet
   facet normal -1.000000e+00 0.000000e+00 0.000000e+00
      outer loop
         vertex -2.000000e-02 1.225000e-01 -1.700000e-01
         vertex -2.000000e-02 1.480000e-01 -1.700000e-01
         vertex -2.000000e-02 1.225000e-01 -1.900000e-01
      endloop
   endfacet
   facet normal -1.000000e+00 0.000000e+00 0.000000e+00
      outer loop
         vertex -2.000000e-02 1.225000e-01 -1.900000e-01
         vertex -2.000000e-02 1.480000e-01 -1.700000e-01
         vertex -2.000000e-02 1.480000e-01 -2.100000e-01
      endloop
   endfacet
   facet normal -1.000000e+00 -0.000000e+00 -0.000000e+00
      outer loop
         vertex -2.000000e-02 1.225000e-01 -1.900000e-01
         vertex -2.000000e-02 1.480000e-01 -2.100000e-01
         vertex -2.000000e-02 8.800000e-02 -1.900000e-01
      endloop
   endfacet
   facet normal -1.000000e+00 0.000000e+00 0.000000e+00
      outer loop
         vertex -2.000000e-02 8.800000e-02 -1.900000e-01
         vertex -2.000000e-02 1.480000e-01 -2.100000e-01
         vertex -2.000000e-02 8.800000e-02 -2.100000e-01
      endloop
   endfacet
   facet normal 0.000000e+00 0.000000e+00 1.000000e+00
      outer loop
         vertex 2.000000e-02 1.480000e-01 -1.700000e-01
         vertex -2.000000e-02 1.480000e-01 -1.700000e-01
         vertex 2.000000e-02 1.225000e-01 -1.700000e-01
      endloop
   endfacet
   facet normal 0.000000e+00 0.000000e+00 1.000000e+00
      outer loop
         vertex 2.000000e-02 1.225000e-01 -1.700000e-01
         vertex -2.000000e-02 1.480000e-01 -1.700000e-01
         vertex -2.000000e-02 1.225000e-01 -1.700000e-01
      endloop
   endfacet
   facet normal -0.000000e+00 1.000000e+00 0.000000e+00
      outer loop
         vertex 2.907171e-03 1.480000e-01 -1.979874e-01
         vertex 4.250000e-03 1.480000e-01 -1.973612e-01
         vertex 2.000000e-02 1.480000e-01 -2.100000e-01
      endloop
   endfacet
   facet normal 0.000000e+00 1.000000e+00 0.000000e+00
      outer loop
         vertex -2.907171e-03 1.480000e-01 -1.820126e-01
         vertex -4.250000e-03 1.480000e-01 -1.826388e-01
         vertex -2.000000e-02 1.480000e-01 -1.700000e-01
      endloop
   endfacet
   facet normal 0.000000e+00 1.000000e+00 0.000000e+00
      outer loop
         vertex -2.000000e-02 1.480000e-01 -1.700000e-01
         vertex -4.250000e-03 1.480000e-01 -1.826388e-01
         vertex -5.463695e-03 1.480000e-01 -1.834886e-01
      endloop
   endfacet
   facet normal 0.000000e+00 1.000000e+00 0.000000e+00
      outer loop
         vertex -5.463695e-03 1.480000e-01 -1.834886e-01
         vertex -6.511378e-03 1.480000e-01 -1.845363e-01
         vertex -2.000000e-02 1.480000e-01 -1.700000e-01
      endloop
   endfacet
   facet normal 0.000000e+00 1.000000e+00 0.000000e+00
      outer loop
         vertex -2.000000e-02 1.480000e-01 -1.700000e-01
         vertex -6.511378e-03 1.480000e-01 -1.845363e-01
         vertex -7.361216e-03 1.480000e-01 -1.857500e-01
      endloop
   endfacet
   facet normal 0.000000e+00 1.000000e+00 0.000000e+00
      outer loop
         vertex -2.000000e-02 1.480000e-01 -1.700000e-01
         vertex -7.361216e-03 1.480000e-01 -1.857500e-01
         vertex -7.987387e-03 1.480000e-01 -1.870928e-01
      endloop
   endfacet
   facet normal 0.000000e+00 1.000000e+00 0.000000e+00
      outer loop
         vertex -2.000000e-02 1.480000e-01 -2.100000e-01
         vertex -2.907171e-03 1.480000e-01 -1.979874e-01
         vertex -1.476009e-03 1.480000e-01 -1.983709e-01
      endloop
   endfacet
   facet normal 0.000000e+00 1.000000e+00 0.000000e+00
      outer loop
         vertex 2.907171e-03 1.480000e-01 -1.979874e-01
         vertex 2.000000e-02 1.480000e-01 -2.100000e-01
         vertex 1.476009e-03 1.480000e-01 -1.983709e-01
      endloop
   endfacet
   facet normal 0.000000e+00 1.000000e+00 0.000000e+00
      outer loop
         vertex -2.000000e-02 1.480000e-01 -2.100000e-01
         vertex -1.476009e-03 1.480000e-01 -1.983709e-01
         vertex 2.000000e-02 1.480000e-01 -2.100000e-01
      endloop
   endfacet
   facet normal 0.000000e+00 1.000000e+00 0.000000e+00
      outer loop
         vertex 2.000000e-02 1.480000e-01 -2.100000e-01
         vertex -1.476009e-03 1.480000e-01 -1.983709e-01
         vertex 4.200539e-17 1.480000e-01 -1.985000e-01
      endloop
   endfacet
   facet normal 0.000000e+00 1.000000e+00 0.000000e+00
      outer loop
         vertex 2.000000e-02 1.480000e-01 -2.100000e-01
         vertex 4.200539e-17 1.480000e-01 -1.985000e-01
         vertex 1.476009e-03 1.480000e-01 -1.983709e-01
      endloop
   endfacet
   facet normal 0.000000e+00 1.000000e+00 0.000000e+00
      outer loop
         vertex -7.987387e-03 1.480000e-01 -1.929072e-01
         vertex -7.361216e-03 1.480000e-01 -1.942500e-01
         vertex -2.000000e-02 1.480000e-01 -2.100000e-01
      endloop
   endfacet
   facet normal 0.000000e+00 1.000000e+00 0.000000e+00
      outer loop
         vertex -2.000000e-02 1.480000e-01 -2.100000e-01
         vertex -7.361216e-03 1.480000e-01 -1.942500e-01
         vertex -6.511378e-03 1.480000e-01 -1.954637e-01
      endloop
   endfacet
   facet normal 0.000000e+00 1.000000e+00 -0.000000e+00
      outer loop
         vertex 2.907171e-03 1.480000e-01 -1.820126e-01
         vertex 1.476009e-03 1.480000e-01 -1.816291e-01
         vertex 2.000000e-02 1.480000e-01 -1.700000e-01
      endloop
   endfacet
   facet normal 0.000000e+00 1.000000e+00 0.000000e+00
      outer loop
         vertex 2.000000e-02 1.480000e-01 -1.700000e-01
         vertex 1.476009e-03 1.480000e-01 -1.816291e-01
         vertex 4.721014e-17 1.480000e-01 -1.815000e-01
      endloop
   endfacet
   facet normal 0.000000e+00 1.000000e+00 0.000000e+00
      outer loop
         vertex 2.000000e-02 1.480000e-01 -1.700000e-01
         vertex 4.721014e-17 1.480000e-01 -1.815000e-01
         vertex -2.000000e-02 1.480000e-01 -1.700000e-01
      endloop
   endfacet
   facet normal 0.000000e+00 1.000000e+00 0.000000e+00
      outer loop
         vertex -2.000000e-02 1.480000e-01 -1.700000e-01
         vertex 4.721014e-17 1.480000e-01 -1.815000e-01
         vertex -1.476009e-03 1.480000e-01 -1.816291e-01
      endloop
   endfacet
   facet normal 0.000000e+00 1.000000e+00 0.000000e+00
      outer loop
         vertex -2.000000e-02 1.480000e-01 -1.700000e-01
         vertex -1.476009e-03 1.480000e-01 -1.816291e-01
         vertex -2.907171e-03 1.480000e-01 -1.820126e-01
      endloop
   endfacet
   facet normal 0.000000e+00 1.000000e+00 0.000000e+00
      outer loop
         vertex -6.511378e-03 1.480000e-01 -1.954637e-01
         vertex -5.463695e-03 1.480000e-01 -1.965114e-01
         vertex -2.000000e-02 1.480000e-01 -2.100000e-01
      endloop
   endfacet
   facet normal 0.000000e+00 1.000000e+00 0.000000e+00
      outer loop
         vertex -2.000000e-02 1.480000e-01 -2.100000e-01
         vertex -5.463695e-03 1.480000e-01 -1.965114e-01
         vertex -4.250000e-03 1.480000e-01 -1.973612e-01
      endloop
   endfacet
   facet normal 0.000000e+00 1.000000e+00 0.000000e+00
      outer loop
         vertex -2.000000e-02 1.480000e-01 -2.100000e-01
         vertex -4.250000e-03 1.480000e-01 -1.973612e-01
         vertex -2.907171e-03 1.480000e-01 -1.979874e-01
      endloop
   endfacet
   facet normal 0.000000e+00 1.000000e+00 0.000000e+00
      outer loop
         vertex -7.987387e-03 1.480000e-01 -1.870928e-01
         vertex -8.370866e-03 1.480000e-01 -1.885240e-01
         vertex -2.000000e-02 1.480000e-01 -1.700000e-01
      endloop
   endfacet
   facet normal 0.000000e+00 1.000000e+00 0.000000e+00
      outer loop
         vertex -2.000000e-02 1.480000e-01 -1.700000e-01
         vertex -8.370866e-03 1.480000e-01 -1.885240e-01
         vertex -8.500000e-03 1.480000e-01 -1.900000e-01
      endloop
   endfacet
   facet normal 0.000000e+00 1.000000e+00 0.000000e+00
      outer loop
         vertex -2.000000e-02 1.480000e-01 -1.700000e-01
         vertex -8.500000e-03 1.480000e-01 -1.900000e-01
         vertex -2.000000e-02 1.480000e-01 -2.100000e-01
      endloop
   endfacet
   facet normal 0.000000e+00 1.000000e+00 0.000000e+00
      outer loop
         vertex -2.000000e-02 1.480000e-01 -2.100000e-01
         vertex -8.500000e-03 1.480000e-01 -1.900000e-01
         vertex -8.370866e-03 1.480000e-01 -1.914760e-01
      endloop
   endfacet
   facet normal 0.000000e+00 1.000000e+00 0.000000e+00
      outer loop
         vertex -2.000000e-02 1.480000e-01 -2.100000e-01
         vertex -8.370866e-03 1.480000e-01 -1.914760e-01
         vertex -7.987387e-03 1.480000e-01 -1.929072e-01
      endloop
   endfacet
   facet normal 0.000000e+00 1.000000e+00 -0.000000e+00
      outer loop
         vertex 8.370866e-03 1.480000e-01 -1.885240e-01
         vertex 7.987387e-03 1.480000e-01 -1.870928e-01
         vertex 2.000000e-02 1.480000e-01 -1.700000e-01
      endloop
   endfacet
   facet normal 0.000000e+00 1.000000e+00 0.000000e+00
      outer loop
         vertex 2.000000e-02 1.480000e-01 -1.700000e-01
         vertex 7.987387e-03 1.480000e-01 -1.870928e-01
         vertex 7.361216e-03 1.480000e-01 -1.857500e-01
      endloop
   endfacet
   facet normal 0.000000e+00 1.000000e+00 0.000000e+00
      outer loop
         vertex 2.000000e-02 1.480000e-01 -1.700000e-01
         vertex 7.361216e-03 1.480000e-01 -1.857500e-01
         vertex 6.511378e-03 1.480000e-01 -1.845363e-01
      endloop
   endfacet
   facet normal 0.000000e+00 1.000000e+00 -0.000000e+00
      outer loop
         vertex 6.511378e-03 1.480000e-01 -1.845363e-01
         vertex 5.463695e-03 1.480000e-01 -1.834886e-01
         vertex 2.000000e-02 1.480000e-01 -1.700000e-01
      endloop
   endfacet
   facet normal 0.000000e+00 1.000000e+00 0.000000e+00
      outer loop
         vertex 2.000000e-02 1.480000e-01 -1.700000e-01
         vertex 5.463695e-03 1.480000e-01 -1.834886e-01
         vertex 4.250000e-03 1.480000e-01 -1.826388e-01
      endloop
   endfacet
   facet normal 0.000000e+00 1.000000e+00 0.000000e+00
      outer loop
         vertex 2.000000e-02 1.480000e-01 -1.700000e-01
         vertex 4.250000e-03 1.480000e-01 -1.826388e-01
         vertex 2.907171e-03 1.480000e-01 -1.820126e-01
      endloop
   endfacet
   facet normal -0.000000e+00 1.000000e+00 0.000000e+00
      outer loop
         vertex 4.250000e-03 1.480000e-01 -1.973612e-01
         vertex 5.463695e-03 1.480000e-01 -1.965114e-01
         vertex 2.000000e-02 1.480000e-01 -2.100000e-01
      endloop
   endfacet
   facet normal 0.000000e+00 1.000000e+00 0.000000e+00
      outer loop
         vertex 2.000000e-02 1.480000e-01 -2.100000e-01
         vertex 5.463695e-03 1.480000e-01 -1.965114e-01
         vertex 6.511378e-03 1.480000e-01 -1.954637e-01
      endloop
   endfacet
   facet normal 0.000000e+00 1.000000e+00 0.000000e+00
      outer loop
         vertex 2.000000e-02 1.480000e-01 -2.100000e-01
         vertex 6.511378e-03 1.480000e-01 -1.954637e-01
         vertex 7.361216e-03 1.480000e-01 -1.942500e-01
      endloop
   endfacet
   facet normal -0.000000e+00 1.000000e+00 0.000000e+00
      outer loop
         vertex 7.361216e-03 1.480000e-01 -1.942500e-01
         vertex 7.987387e-03 1.480000e-01 -1.929072e-01
         vertex 2.000000e-02 1.480000e-01 -2.100000e-01
      endloop
   endfacet
   facet normal 0.000000e+00 1.000000e+00 0.000000e+00
      outer loop
         vertex 2.000000e-02 1.480000e-01 -2.100000e-01
         vertex 7.987387e-03 1.480000e-01 -1.929072e-01
         vertex 8.370866e-03 1.480000e-01 -1.914760e-01
      endloop
   endfacet
   facet normal 0.000000e+00 1.000000e+00 -0.000000e+00
      outer loop
         vertex 2.000000e-02 1.480000e-01 -2.100000e-01
         vertex 8.370866e-03 1.480000e-01 -1.914760e-01
         vertex 2.000000e-02 1.480000e-01 -1.700000e-01
      endloop
   endfacet
   facet normal 0.000000e+00 1.000000e+00 0.000000e+00
      outer loop
         vertex 2.000000e-02 1.480000e-01 -1.700000e-01
         vertex 8.370866e-03 1.480000e-01 -1.914760e-01
         vertex 8.500000e-03 1.480000e-01 -1.900000e-01
      endloop
   endfacet
   facet normal 0.000000e+00 1.000000e+00 0.000000e+00
      outer loop
         vertex 2.000000e-02 1.480000e-01 -1.700000e-01
         vertex 8.500000e-03 1.480000e-01 -1.900000e-01
         vertex 8.370866e-03 1.480000e-01 -1.885240e-01
      endloop
   endfacet
   facet normal 0.000000e+00 -1.000000e+00 0.000000e+00
      outer loop
         vertex -8.370866e-03 8.800000e-02 -1.914760e-01
         vertex -8.500000e-03 8.800000e-02 -1.900000e-01
         vertex -2.000000e-02 8.800000e-02 -1.900000e-01
      endloop
   endfacet
   facet normal -0.000000e+00 -1.000000e+00 0.000000e+00
      outer loop
         vertex -2.907171e-03 8.800000e-02 -1.979874e-01
         vertex -4.250000e-03 8.800000e-02 -1.973612e-01
         vertex -2.000000e-02 8.800000e-02 -2.100000e-01
      endloop
   endfacet
   facet normal 0.000000e+00 -1.000000e+00 0.000000e+00
      outer loop
         vertex -2.000000e-02 8.800000e-02 -2.100000e-01
         vertex -4.250000e-03 8.800000e-02 -1.973612e-01
         vertex -5.463695e-03 8.800000e-02 -1.965114e-01
      endloop
   endfacet
   facet normal 0.000000e+00 -1.000000e+00 -0.000000e+00
      outer loop
         vertex 6.511378e-03 8.800000e-02 -1.954637e-01
         vertex 5.463695e-03 8.800000e-02 -1.965114e-01
         vertex 2.000000e-02 8.800000e-02 -2.100000e-01
      endloop
   endfacet
   facet normal 0.000000e+00 -1.000000e+00 0.000000e+00
      outer loop
         vertex 2.000000e-02 8.800000e-02 -2.100000e-01
         vertex 5.463695e-03 8.800000e-02 -1.965114e-01
         vertex 4.250000e-03 8.800000e-02 -1.973612e-01
      endloop
   endfacet
   facet normal 0.000000e+00 -1.000000e+00 0.000000e+00
      outer loop
         vertex 2.000000e-02 8.800000e-02 -2.100000e-01
         vertex 4.250000e-03 8.800000e-02 -1.973612e-01
         vertex 2.907171e-03 8.800000e-02 -1.979874e-01
      endloop
   endfacet
   facet normal 0.000000e+00 -1.000000e+00 -0.000000e+00
      outer loop
         vertex 2.907171e-03 8.800000e-02 -1.979874e-01
         vertex 1.476009e-03 8.800000e-02 -1.983709e-01
         vertex 2.000000e-02 8.800000e-02 -2.100000e-01
      endloop
   endfacet
   facet normal 0.000000e+00 -1.000000e+00 0.000000e+00
      outer loop
         vertex 2.000000e-02 8.800000e-02 -2.100000e-01
         vertex 1.476009e-03 8.800000e-02 -1.983709e-01
         vertex 4.510281e-17 8.800000e-02 -1.985000e-01
      endloop
   endfacet
   facet normal 0.000000e+00 -1.000000e+00 0.000000e+00
      outer loop
         vertex 2.000000e-02 8.800000e-02 -2.100000e-01
         vertex 4.510281e-17 8.800000e-02 -1.985000e-01
         vertex -2.000000e-02 8.800000e-02 -2.100000e-01
      endloop
   endfacet
   facet normal 0.000000e+00 -1.000000e+00 0.000000e+00
      outer loop
         vertex -2.000000e-02 8.800000e-02 -2.100000e-01
         vertex 4.510281e-17 8.800000e-02 -1.985000e-01
         vertex -1.476009e-03 8.800000e-02 -1.983709e-01
      endloop
   endfacet
   facet normal 0.000000e+00 -1.000000e+00 0.000000e+00
      outer loop
         vertex -2.000000e-02 8.800000e-02 -2.100000e-01
         vertex -1.476009e-03 8.800000e-02 -1.983709e-01
         vertex -2.907171e-03 8.800000e-02 -1.979874e-01
      endloop
   endfacet
   facet normal -0.000000e+00 -1.000000e+00 0.000000e+00
      outer loop
         vertex -5.463695e-03 8.800000e-02 -1.965114e-01
         vertex -6.511378e-03 8.800000e-02 -1.954637e-01
         vertex -2.000000e-02 8.800000e-02 -2.100000e-01
      endloop
   endfacet
   facet normal 0.000000e+00 -1.000000e+00 0.000000e+00
      outer loop
         vertex -2.000000e-02 8.800000e-02 -2.100000e-01
         vertex -6.511378e-03 8.800000e-02 -1.954637e-01
         vertex -7.361216e-03 8.800000e-02 -1.942500e-01
      endloop
   endfacet
   facet normal 0.000000e+00 -1.000000e+00 0.000000e+00
      outer loop
         vertex -2.000000e-02 8.800000e-02 -2.100000e-01
         vertex -7.361216e-03 8.800000e-02 -1.942500e-01
         vertex -2.000000e-02 8.800000e-02 -1.900000e-01
      endloop
   endfacet
   facet normal 0.000000e+00 -1.000000e+00 0.000000e+00
      outer loop
         vertex -2.000000e-02 8.800000e-02 -1.900000e-01
         vertex -7.361216e-03 8.800000e-02 -1.942500e-01
         vertex -7.987387e-03 8.800000e-02 -1.929072e-01
      endloop
   endfacet
   facet normal 0.000000e+00 -1.000000e+00 0.000000e+00
      outer loop
         vertex -2.000000e-02 8.800000e-02 -1.900000e-01
         vertex -7.987387e-03 8.800000e-02 -1.929072e-01
         vertex -8.370866e-03 8.800000e-02 -1.914760e-01
      endloop
   endfacet
   facet normal 0.000000e+00 -1.000000e+00 -0.000000e+00
      outer loop
         vertex 8.500000e-03 8.800000e-02 -1.900000e-01
         vertex 8.370866e-03 8.800000e-02 -1.914760e-01
         vertex 2.000000e-02 8.800000e-02 -1.900000e-01
      endloop
   endfacet
   facet normal 0.000000e+00 -1.000000e+00 0.000000e+00
      outer loop
         vertex 2.000000e-02 8.800000e-02 -1.900000e-01
         vertex 8.370866e-03 8.800000e-02 -1.914760e-01
         vertex 7.987387e-03 8.800000e-02 -1.929072e-01
      endloop
   endfacet
   facet normal 0.000000e+00 -1.000000e+00 -0.000000e+00
      outer loop
         vertex 2.000000e-02 8.800000e-02 -1.900000e-01
         vertex 7.987387e-03 8.800000e-02 -1.929072e-01
         vertex 2.000000e-02 8.800000e-02 -2.100000e-01
      endloop
   endfacet
   facet normal 0.000000e+00 -1.000000e+00 0.000000e+00
      outer loop
         vertex 2.000000e-02 8.800000e-02 -2.100000e-01
         vertex 7.987387e-03 8.800000e-02 -1.929072e-01
         vertex 7.361216e-03 8.800000e-02 -1.942500e-01
      endloop
   endfacet
   facet normal 0.000000e+00 -1.000000e+00 0.000000e+00
      outer loop
         vertex 2.000000e-02 8.800000e-02 -2.100000e-01
         vertex 7.361216e-03 8.800000e-02 -1.942500e-01
         vertex 6.511378e-03 8.800000e-02 -1.954637e-01
      endloop
   endfacet
   facet normal -0.000000e+00 -0.000000e+00 -1.000000e+00
      outer loop
         vertex 2.000000e-02 1.480000e-01 -2.100000e-01
         vertex 2.000000e-02 8.800000e-02 -2.100000e-01
         vertex -2.000000e-02 1.480000e-01 -2.100000e-01
      endloop
   endfacet
   facet normal 0.000000e+00 0.000000e+00 -1.000000e+00
      outer loop
         vertex -2.000000e-02 1.480000e-01 -2.100000e-01
         vertex 2.000000e-02 8.800000e-02 -2.100000e-01
         vertex -2.000000e-02 8.800000e-02 -2.100000e-01
      endloop
   endfacet
   facet normal -9.961947e-01 -0.000000e+00 -8.715622e-02
      outer loop
         vertex 8.500000e-03 -8.800000e-02 -1.900000e-01
         vertex 8.500000e-03 -1.480000e-01 -1.900000e-01
         vertex 8.370866e-03 -1.480000e-01 -1.885240e-01
      endloop
   endfacet
   facet normal -9.961947e-01 0.000000e+00 -8.715622e-02
      outer loop
         vertex 8.500000e-03 -8.800000e-02 -1.900000e-01
         vertex 8.370866e-03 -1.480000e-01 -1.885240e-01
         vertex 8.500000e-03 8.800000e-02 -1.900000e-01
      endloop
   endfacet
   facet normal 9.961947e-01 0.000000e+00 -8.715622e-02
      outer loop
         vertex -8.500000e-03 -8.800000e-02 -1.900000e-01
         vertex -8.500000e-03 8.800000e-02 -1.900000e-01
         vertex -8.370866e-03 1.480000e-01 -1.885240e-01
      endloop
   endfacet
   facet normal -9.961947e-01 0.000000e+00 8.715622e-02
      outer loop
         vertex 8.500000e-03 -1.480000e-01 -1.900000e-01
         vertex 8.500000e-03 -8.800000e-02 -1.900000e-01
         vertex 8.370866e-03 -1.480000e-01 -1.914760e-01
      endloop
   endfacet
   facet normal -9.961947e-01 0.000000e+00 8.715622e-02
      outer loop
         vertex 8.370866e-03 -1.480000e-01 -1.914760e-01
         vertex 8.500000e-03 -8.800000e-02 -1.900000e-01
         vertex 8.370866e-03 -8.800000e-02 -1.914760e-01
      endloop
   endfacet
   facet normal -9.659261e-01 0.000000e+00 2.588181e-01
      outer loop
         vertex 8.370866e-03 -1.480000e-01 -1.914760e-01
         vertex 8.370866e-03 -8.800000e-02 -1.914760e-01
         vertex 7.987387e-03 -1.480000e-01 -1.929072e-01
      endloop
   endfacet
   facet normal -9.659261e-01 0.000000e+00 2.588181e-01
      outer loop
         vertex 7.987387e-03 -1.480000e-01 -1.929072e-01
         vertex 8.370866e-03 -8.800000e-02 -1.914760e-01
         vertex 7.987387e-03 -8.800000e-02 -1.929072e-01
      endloop
   endfacet
   facet normal -9.063083e-01 0.000000e+00 4.226172e-01
      outer loop
         vertex 7.987387e-03 -1.480000e-01 -1.929072e-01
         vertex 7.987387e-03 -8.800000e-02 -1.929072e-01
         vertex 7.361216e-03 -1.480000e-01 -1.942500e-01
      endloop
   endfacet
   facet normal -9.063083e-01 0.000000e+00 4.226172e-01
      outer loop
         vertex 7.361216e-03 -1.480000e-01 -1.942500e-01
         vertex 7.987387e-03 -8.800000e-02 -1.929072e-01
         vertex 7.361216e-03 -8.800000e-02 -1.942500e-01
      endloop
   endfacet
   facet normal -8.191531e-01 0.000000e+00 5.735750e-01
      outer loop
         vertex 7.361216e-03 -1.480000e-01 -1.942500e-01
         vertex 7.361216e-03 -8.800000e-02 -1.942500e-01
         vertex 6.511378e-03 -1.480000e-01 -1.954637e-01
      endloop
   endfacet
   facet normal -8.191531e-01 0.000000e+00 5.735750e-01
      outer loop
         vertex 6.511378e-03 -1.480000e-01 -1.954637e-01
         vertex 7.361216e-03 -8.800000e-02 -1.942500e-01
         vertex 6.511378e-03 -8.800000e-02 -1.954637e-01
      endloop
   endfacet
   facet normal -7.071027e-01 0.000000e+00 7.071109e-01
      outer loop
         vertex 6.511378e-03 -1.480000e-01 -1.954637e-01
         vertex 6.511378e-03 -8.800000e-02 -1.954637e-01
         vertex 5.463695e-03 -1.480000e-01 -1.965114e-01
      endloop
   endfacet
   facet normal -7.071027e-01 0.000000e+00 7.071109e-01
      outer loop
         vertex 5.463695e-03 -1.480000e-01 -1.965114e-01
         vertex 6.511378e-03 -8.800000e-02 -1.954637e-01
         vertex 5.463695e-03 -8.800000e-02 -1.965114e-01
      endloop
   endfacet
   facet normal -5.735787e-01 0.000000e+00 8.191505e-01
      outer loop
         vertex 5.463695e-03 -1.480000e-01 -1.965114e-01
         vertex 5.463695e-03 -8.800000e-02 -1.965114e-01
         vertex 4.250000e-03 -1.480000e-01 -1.973612e-01
      endloop
   endfacet
   facet normal -5.735787e-01 0.000000e+00 8.191505e-01
      outer loop
         vertex 4.250000e-03 -1.480000e-01 -1.973612e-01
         vertex 5.463695e-03 -8.800000e-02 -1.965114e-01
         vertex 4.250000e-03 -8.800000e-02 -1.973612e-01
      endloop
   endfacet
   facet normal -4.226211e-01 0.000000e+00 9.063065e-01
      outer loop
         vertex 4.250000e-03 -1.480000e-01 -1.973612e-01
         vertex 4.250000e-03 -8.800000e-02 -1.973612e-01
         vertex 2.907171e-03 -1.480000e-01 -1.979874e-01
      endloop
   endfacet
   facet normal -4.226211e-01 0.000000e+00 9.063065e-01
      outer loop
         vertex 2.907171e-03 -1.480000e-01 -1.979874e-01
         vertex 4.250000e-03 -8.800000e-02 -1.973612e-01
         vertex 2.907171e-03 -8.800000e-02 -1.979874e-01
      endloop
   endfacet
   facet normal -2.588114e-01 0.000000e+00 9.659279e-01
      outer loop
         vertex 2.907171e-03 -1.480000e-01 -1.979874e-01
         vertex 2.907171e-03 -8.800000e-02 -1.979874e-01
         vertex 1.476009e-03 -1.480000e-01 -1.983709e-01
      endloop
   endfacet
   facet normal -2.588114e-01 0.000000e+00 9.659279e-01
      outer loop
         vertex 1.476009e-03 -1.480000e-01 -1.983709e-01
         vertex 2.907171e-03 -8.800000e-02 -1.979874e-01
         vertex 1.476009e-03 -8.800000e-02 -1.983709e-01
      endloop
   endfacet
   facet normal -8.716530e-02 0.000000e+00 9.961939e-01
      outer loop
         vertex 1.476009e-03 -1.480000e-01 -1.983709e-01
         vertex 1.476009e-03 -8.800000e-02 -1.983709e-01
         vertex 4.200539e-17 -1.480000e-01 -1.985000e-01
      endloop
   endfacet
   facet normal -8.716530e-02 3.024487e-18 9.961939e-01
      outer loop
         vertex 4.200539e-17 -1.480000e-01 -1.985000e-01
         vertex 1.476009e-03 -8.800000e-02 -1.983709e-01
         vertex 4.408728e-17 -8.800000e-02 -1.985000e-01
      endloop
   endfacet
   facet normal 8.716530e-02 -3.024487e-18 9.961939e-01
      outer loop
         vertex 4.200539e-17 -1.480000e-01 -1.985000e-01
         vertex 4.408728e-17 -8.800000e-02 -1.985000e-01
         vertex -1.476009e-03 -1.480000e-01 -1.983709e-01
      endloop
   endfacet
   facet normal 8.716530e-02 -0.000000e+00 9.961939e-01
      outer loop
         vertex -1.476009e-03 -1.480000e-01 -1.983709e-01
         vertex 4.408728e-17 -8.800000e-02 -1.985000e-01
         vertex -1.476009e-03 -8.800000e-02 -1.983709e-01
      endloop
   endfacet
   facet normal 2.588114e-01 -0.000000e+00 9.659279e-01
      outer loop
         vertex -1.476009e-03 -1.480000e-01 -1.983709e-01
         vertex -1.476009e-03 -8.800000e-02 -1.983709e-01
         vertex -2.907171e-03 -1.480000e-01 -1.979874e-01
      endloop
   endfacet
   facet normal 2.588114e-01 -0.000000e+00 9.659279e-01
      outer loop
         vertex -2.907171e-03 -1.480000e-01 -1.979874e-01
         vertex -1.476009e-03 -8.800000e-02 -1.983709e-01
         vertex -2.907171e-03 -8.800000e-02 -1.979874e-01
      endloop
   endfacet
   facet normal 4.226211e-01 -0.000000e+00 9.063065e-01
      outer loop
         vertex -2.907171e-03 -1.480000e-01 -1.979874e-01
         vertex -2.907171e-03 -8.800000e-02 -1.979874e-01
         vertex -4.250000e-03 -1.480000e-01 -1.973612e-01
      endloop
   endfacet
   facet normal 4.226211e-01 -0.000000e+00 9.063065e-01
      outer loop
         vertex -4.250000e-03 -1.480000e-01 -1.973612e-01
         vertex -2.907171e-03 -8.800000e-02 -1.979874e-01
         vertex -4.250000e-03 -8.800000e-02 -1.973612e-01
      endloop
   endfacet
   facet normal 5.735787e-01 -0.000000e+00 8.191505e-01
      outer loop
         vertex -4.250000e-03 -1.480000e-01 -1.973612e-01
         vertex -4.250000e-03 -8.800000e-02 -1.973612e-01
         vertex -5.463695e-03 -1.480000e-01 -1.965114e-01
      endloop
   endfacet
   facet normal 5.735787e-01 -0.000000e+00 8.191505e-01
      outer loop
         vertex -5.463695e-03 -1.480000e-01 -1.965114e-01
         vertex -4.250000e-03 -8.800000e-02 -1.973612e-01
         vertex -5.463695e-03 -8.800000e-02 -1.965114e-01
      endloop
   endfacet
   facet normal 7.071027e-01 -0.000000e+00 7.071109e-01
      outer loop
         vertex -5.463695e-03 -1.480000e-01 -1.965114e-01
         vertex -5.463695e-03 -8.800000e-02 -1.965114e-01
         vertex -6.511378e-03 -1.480000e-01 -1.954637e-01
      endloop
   endfacet
   facet normal 7.071027e-01 -0.000000e+00 7.071109e-01
      outer loop
         vertex -6.511378e-03 -1.480000e-01 -1.954637e-01
         vertex -5.463695e-03 -8.800000e-02 -1.965114e-01
         vertex -6.511378e-03 -8.800000e-02 -1.954637e-01
      endloop
   endfacet
   facet normal 8.191531e-01 -0.000000e+00 5.735750e-01
      outer loop
         vertex -6.511378e-03 -1.480000e-01 -1.954637e-01
         vertex -6.511378e-03 -8.800000e-02 -1.954637e-01
         vertex -7.361216e-03 -1.480000e-01 -1.942500e-01
      endloop
   endfacet
   facet normal 8.191531e-01 -0.000000e+00 5.735750e-01
      outer loop
         vertex -7.361216e-03 -1.480000e-01 -1.942500e-01
         vertex -6.511378e-03 -8.800000e-02 -1.954637e-01
         vertex -7.361216e-03 -8.800000e-02 -1.942500e-01
      endloop
   endfacet
   facet normal 9.063083e-01 -0.000000e+00 4.226172e-01
      outer loop
         vertex -7.361216e-03 -1.480000e-01 -1.942500e-01
         vertex -7.361216e-03 -8.800000e-02 -1.942500e-01
         vertex -7.987387e-03 -1.480000e-01 -1.929072e-01
      endloop
   endfacet
   facet normal 9.063083e-01 -0.000000e+00 4.226172e-01
      outer loop
         vertex -7.987387e-03 -1.480000e-01 -1.929072e-01
         vertex -7.361216e-03 -8.800000e-02 -1.942500e-01
         vertex -7.987387e-03 -8.800000e-02 -1.929072e-01
      endloop
   endfacet
   facet normal 9.659261e-01 -0.000000e+00 2.588181e-01
      outer loop
         vertex -7.987387e-03 -1.480000e-01 -1.929072e-01
         vertex -7.987387e-03 -8.800000e-02 -1.929072e-01
         vertex -8.370866e-03 -1.480000e-01 -1.914760e-01
      endloop
   endfacet
   facet normal 9.659261e-01 -0.000000e+00 2.588181e-01
      outer loop
         vertex -8.370866e-03 -1.480000e-01 -1.914760e-01
         vertex -7.987387e-03 -8.800000e-02 -1.929072e-01
         vertex -8.370866e-03 -8.800000e-02 -1.914760e-01
      endloop
   endfacet
   facet normal 9.961947e-01 -0.000000e+00 8.715622e-02
      outer loop
         vertex -8.370866e-03 -1.480000e-01 -1.914760e-01
         vertex -8.370866e-03 -8.800000e-02 -1.914760e-01
         vertex -8.500000e-03 -1.480000e-01 -1.900000e-01
      endloop
   endfacet
   facet normal 9.961947e-01 -0.000000e+00 8.715622e-02
      outer loop
         vertex -8.500000e-03 -1.480000e-01 -1.900000e-01
         vertex -8.370866e-03 -8.800000e-02 -1.914760e-01
         vertex -8.500000e-03 -8.800000e-02 -1.900000e-01
      endloop
   endfacet
   facet normal 9.961947e-01 0.000000e+00 -8.715622e-02
      outer loop
         vertex -8.500000e-03 -1.480000e-01 -1.900000e-01
         vertex -8.500000e-03 -8.800000e-02 -1.900000e-01
         vertex -8.370866e-03 -1.480000e-01 -1.885240e-01
      endloop
   endfacet
   facet normal 9.961947e-01 0.000000e+00 -8.715622e-02
      outer loop
         vertex -8.370866e-03 -1.480000e-01 -1.885240e-01
         vertex -8.500000e-03 -8.800000e-02 -1.900000e-01
         vertex -8.370866e-03 1.480000e-01 -1.885240e-01
      endloop
   endfacet
   facet normal 9.659261e-01 0.000000e+00 -2.588181e-01
      outer loop
         vertex -8.370866e-03 -1.480000e-01 -1.885240e-01
         vertex -8.370866e-03 1.480000e-01 -1.885240e-01
         vertex -7.987387e-03 -1.480000e-01 -1.870928e-01
      endloop
   endfacet
   facet normal 9.659261e-01 0.000000e+00 -2.588181e-01
      outer loop
         vertex -7.987387e-03 -1.480000e-01 -1.870928e-01
         vertex -8.370866e-03 1.480000e-01 -1.885240e-01
         vertex -7.987387e-03 1.480000e-01 -1.870928e-01
      endloop
   endfacet
   facet normal 9.063083e-01 0.000000e+00 -4.226172e-01
      outer loop
         vertex -7.987387e-03 -1.480000e-01 -1.870928e-01
         vertex -7.987387e-03 1.480000e-01 -1.870928e-01
         vertex -7.361216e-03 -1.480000e-01 -1.857500e-01
      endloop
   endfacet
   facet normal 9.063083e-01 0.000000e+00 -4.226172e-01
      outer loop
         vertex -7.361216e-03 -1.480000e-01 -1.857500e-01
         vertex -7.987387e-03 1.480000e-01 -1.870928e-01
         vertex -7.361216e-03 1.480000e-01 -1.857500e-01
      endloop
   endfacet
   facet normal 8.191498e-01 0.000000e+00 -5.735797e-01
      outer loop
         vertex -7.361216e-03 -1.480000e-01 -1.857500e-01
         vertex -7.361216e-03 1.480000e-01 -1.857500e-01
         vertex -6.511378e-03 -1.480000e-01 -1.845363e-01
      endloop
   endfacet
   facet normal 8.191498e-01 0.000000e+00 -5.735797e-01
      outer loop
         vertex -6.511378e-03 -1.480000e-01 -1.845363e-01
         vertex -7.361216e-03 1.480000e-01 -1.857500e-01
         vertex -6.511378e-03 1.480000e-01 -1.845363e-01
      endloop
   endfacet
   facet normal 7.071077e-01 0.000000e+00 -7.071058e-01
      outer loop
         vertex -6.511378e-03 -1.480000e-01 -1.845363e-01
         vertex -6.511378e-03 1.480000e-01 -1.845363e-01
         vertex -5.463695e-03 -1.480000e-01 -1.834886e-01
      endloop
   endfacet
   facet normal 7.071077e-01 0.000000e+00 -7.071058e-01
      outer loop
         vertex -5.463695e-03 -1.480000e-01 -1.834886e-01
         vertex -6.511378e-03 1.480000e-01 -1.845363e-01
         vertex -5.463695e-03 1.480000e-01 -1.834886e-01
      endloop
   endfacet
   facet normal 5.735787e-01 0.000000e+00 -8.191505e-01
      outer loop
         vertex -5.463695e-03 -1.480000e-01 -1.834886e-01
         vertex -5.463695e-03 1.480000e-01 -1.834886e-01
         vertex -4.250000e-03 -1.480000e-01 -1.826388e-01
      endloop
   endfacet
   facet normal 5.735787e-01 0.000000e+00 -8.191505e-01
      outer loop
         vertex -4.250000e-03 -1.480000e-01 -1.826388e-01
         vertex -5.463695e-03 1.480000e-01 -1.834886e-01
         vertex -4.250000e-03 1.480000e-01 -1.826388e-01
      endloop
   endfacet
   facet normal 4.226128e-01 0.000000e+00 -9.063103e-01
      outer loop
         vertex -4.250000e-03 -1.480000e-01 -1.826388e-01
         vertex -4.250000e-03 1.480000e-01 -1.826388e-01
         vertex -2.907171e-03 -1.480000e-01 -1.820126e-01
      endloop
   endfacet
   facet normal 4.226128e-01 0.000000e+00 -9.063103e-01
      outer loop
         vertex -2.907171e-03 -1.480000e-01 -1.820126e-01
         vertex -4.250000e-03 1.480000e-01 -1.826388e-01
         vertex -2.907171e-03 1.480000e-01 -1.820126e-01
      endloop
   endfacet
   facet normal 2.588208e-01 0.000000e+00 -9.659254e-01
      outer loop
         vertex -2.907171e-03 -1.480000e-01 -1.820126e-01
         vertex -2.907171e-03 1.480000e-01 -1.820126e-01
         vertex -1.476009e-03 -1.480000e-01 -1.816291e-01
      endloop
   endfacet
   facet normal 2.588208e-01 0.000000e+00 -9.659254e-01
      outer loop
         vertex -1.476009e-03 -1.480000e-01 -1.816291e-01
         vertex -2.907171e-03 1.480000e-01 -1.820126e-01
         vertex -1.476009e-03 1.480000e-01 -1.816291e-01
      endloop
   endfacet
   facet normal 8.715532e-02 0.000000e+00 -9.961947e-01
      outer loop
         vertex -1.476009e-03 -1.480000e-01 -1.816291e-01
         vertex -1.476009e-03 1.480000e-01 -1.816291e-01
         vertex 4.512823e-17 -1.480000e-01 -1.815000e-01
      endloop
   endfacet
   facet normal 8.715532e-02 0.000000e+00 -9.961947e-01
      outer loop
         vertex 4.512823e-17 -1.480000e-01 -1.815000e-01
         vertex -1.476009e-03 1.480000e-01 -1.816291e-01
         vertex 4.512823e-17 1.480000e-01 -1.815000e-01
      endloop
   endfacet
   facet normal -8.715532e-02 0.000000e+00 -9.961947e-01
      outer loop
         vertex 4.512823e-17 -1.480000e-01 -1.815000e-01
         vertex 4.512823e-17 1.480000e-01 -1.815000e-01
         vertex 1.476009e-03 -1.480000e-01 -1.816291e-01
      endloop
   endfacet
   facet normal -8.715532e-02 0.000000e+00 -9.961947e-01
      outer loop
         vertex 1.476009e-03 -1.480000e-01 -1.816291e-01
         vertex 4.512823e-17 1.480000e-01 -1.815000e-01
         vertex 1.476009e-03 1.480000e-01 -1.816291e-01
      endloop
   endfacet
   facet normal -2.588208e-01 0.000000e+00 -9.659254e-01
      outer loop
         vertex 1.476009e-03 -1.480000e-01 -1.816291e-01
         vertex 1.476009e-03 1.480000e-01 -1.816291e-01
         vertex 2.907171e-03 -1.480000e-01 -1.820126e-01
      endloop
   endfacet
   facet normal -2.588208e-01 0.000000e+00 -9.659254e-01
      outer loop
         vertex 2.907171e-03 -1.480000e-01 -1.820126e-01
         vertex 1.476009e-03 1.480000e-01 -1.816291e-01
         vertex 2.907171e-03 1.480000e-01 -1.820126e-01
      endloop
   endfacet
   facet normal -4.226128e-01 0.000000e+00 -9.063103e-01
      outer loop
         vertex 2.907171e-03 -1.480000e-01 -1.820126e-01
         vertex 2.907171e-03 1.480000e-01 -1.820126e-01
         vertex 4.250000e-03 -1.480000e-01 -1.826388e-01
      endloop
   endfacet
   facet normal -4.226128e-01 0.000000e+00 -9.063103e-01
      outer loop
         vertex 4.250000e-03 -1.480000e-01 -1.826388e-01
         vertex 2.907171e-03 1.480000e-01 -1.820126e-01
         vertex 4.250000e-03 1.480000e-01 -1.826388e-01
      endloop
   endfacet
   facet normal -5.735787e-01 0.000000e+00 -8.191505e-01
      outer loop
         vertex 4.250000e-03 -1.480000e-01 -1.826388e-01
         vertex 4.250000e-03 1.480000e-01 -1.826388e-01
         vertex 5.463695e-03 -1.480000e-01 -1.834886e-01
      endloop
   endfacet
   facet normal -5.735787e-01 0.000000e+00 -8.191505e-01
      outer loop
         vertex 5.463695e-03 -1.480000e-01 -1.834886e-01
         vertex 4.250000e-03 1.480000e-01 -1.826388e-01
         vertex 5.463695e-03 1.480000e-01 -1.834886e-01
      endloop
   endfacet
   facet normal -7.071077e-01 0.000000e+00 -7.071058e-01
      outer loop
         vertex 5.463695e-03 -1.480000e-01 -1.834886e-01
         vertex 5.463695e-03 1.480000e-01 -1.834886e-01
         vertex 6.511378e-03 -1.480000e-01 -1.845363e-01
      endloop
   endfacet
   facet normal -7.071077e-01 0.000000e+00 -7.071058e-01
      outer loop
         vertex 6.511378e-03 -1.480000e-01 -1.845363e-01
         vertex 5.463695e-03 1.480000e-01 -1.834886e-01
         vertex 6.511378e-03 1.480000e-01 -1.845363e-01
      endloop
   endfacet
   facet normal -8.191498e-01 0.000000e+00 -5.735797e-01
      outer loop
         vertex 6.511378e-03 -1.480000e-01 -1.845363e-01
         vertex 6.511378e-03 1.480000e-01 -1.845363e-01
         vertex 7.361216e-03 -1.480000e-01 -1.857500e-01
      endloop
   endfacet
   facet normal -8.191498e-01 0.000000e+00 -5.735797e-01
      outer loop
         vertex 7.361216e-03 -1.480000e-01 -1.857500e-01
         vertex 6.511378e-03 1.480000e-01 -1.845363e-01
         vertex 7.361216e-03 1.480000e-01 -1.857500e-01
      endloop
   endfacet
   facet normal -9.063083e-01 0.000000e+00 -4.226172e-01
      outer loop
         vertex 7.361216e-03 -1.480000e-01 -1.857500e-01
         vertex 7.361216e-03 1.480000e-01 -1.857500e-01
         vertex 7.987387e-03 -1.480000e-01 -1.870928e-01
      endloop
   endfacet
   facet normal -9.063083e-01 0.000000e+00 -4.226172e-01
      outer loop
         vertex 7.987387e-03 -1.480000e-01 -1.870928e-01
         vertex 7.361216e-03 1.480000e-01 -1.857500e-01
         vertex 7.987387e-03 1.480000e-01 -1.870928e-01
      endloop
   endfacet
   facet normal -9.659261e-01 0.000000e+00 -2.588181e-01
      outer loop
         vertex 7.987387e-03 -1.480000e-01 -1.870928e-01
         vertex 7.987387e-03 1.480000e-01 -1.870928e-01
         vertex 8.370866e-03 -1.480000e-01 -1.885240e-01
      endloop
   endfacet
   facet normal -9.659261e-01 0.000000e+00 -2.588181e-01
      outer loop
         vertex 8.370866e-03 -1.480000e-01 -1.885240e-01
         vertex 7.987387e-03 1.480000e-01 -1.870928e-01
         vertex 8.370866e-03 1.480000e-01 -1.885240e-01
      endloop
   endfacet
   facet normal -9.961947e-01 0.000000e+00 -8.715622e-02
      outer loop
         vertex 8.370866e-03 -1.480000e-01 -1.885240e-01
         vertex 8.370866e-03 1.480000e-01 -1.885240e-01
         vertex 8.500000e-03 8.800000e-02 -1.900000e-01
      endloop
   endfacet
   facet normal -9.961947e-01 0.000000e+00 -8.715622e-02
      outer loop
         vertex 8.500000e-03 8.800000e-02 -1.900000e-01
         vertex 8.370866e-03 1.480000e-01 -1.885240e-01
         vertex 8.500000e-03 1.480000e-01 -1.900000e-01
      endloop
   endfacet
   facet normal -9.961947e-01 0.000000e+00 8.715622e-02
      outer loop
         vertex 8.500000e-03 8.800000e-02 -1.900000e-01
         vertex 8.500000e-03 1.480000e-01 -1.900000e-01
         vertex 8.370866e-03 8.800000e-02 -1.914760e-01
      endloop
   endfacet
   facet normal -9.961947e-01 0.000000e+00 8.715622e-02
      outer loop
         vertex 8.370866e-03 8.800000e-02 -1.914760e-01
         vertex 8.500000e-03 1.480000e-01 -1.900000e-01
         vertex 8.370866e-03 1.480000e-01 -1.914760e-01
      endloop
   endfacet
   facet normal -9.659261e-01 0.000000e+00 2.588181e-01
      outer loop
         vertex 8.370866e-03 8.800000e-02 -1.914760e-01
         vertex 8.370866e-03 1.480000e-01 -1.914760e-01
         vertex 7.987387e-03 8.800000e-02 -1.929072e-01
      endloop
   endfacet
   facet normal -9.659261e-01 0.000000e+00 2.588181e-01
      outer loop
         vertex 7.987387e-03 8.800000e-02 -1.929072e-01
         vertex 8.370866e-03 1.480000e-01 -1.914760e-01
         vertex 7.987387e-03 1.480000e-01 -1.929072e-01
      endloop
   endfacet
   facet normal -9.063083e-01 0.000000e+00 4.226172e-01
      outer loop
         vertex 7.987387e-03 8.800000e-02 -1.929072e-01
         vertex 7.987387e-03 1.480000e-01 -1.929072e-01
         vertex 7.361216e-03 8.800000e-02 -1.942500e-01
      endloop
   endfacet
   facet normal -9.063083e-01 0.000000e+00 4.226172e-01
      outer loop
         vertex 7.361216e-03 8.800000e-02 -1.942500e-01
         vertex 7.987387e-03 1.480000e-01 -1.929072e-01
         vertex 7.361216e-03 1.480000e-01 -1.942500e-01
      endloop
   endfacet
   facet normal -8.191531e-01 0.000000e+00 5.735750e-01
      outer loop
         vertex 7.361216e-03 8.800000e-02 -1.942500e-01
         vertex 7.361216e-03 1.480000e-01 -1.942500e-01
         vertex 6.511378e-03 8.800000e-02 -1.954637e-01
      endloop
   endfacet
   facet normal -8.191531e-01 0.000000e+00 5.735750e-01
      outer loop
         vertex 6.511378e-03 8.800000e-02 -1.954637e-01
         vertex 7.361216e-03 1.480000e-01 -1.942500e-01
         vertex 6.511378e-03 1.480000e-01 -1.954637e-01
      endloop
   endfacet
   facet normal -7.071027e-01 0.000000e+00 7.071109e-01
      outer loop
         vertex 6.511378e-03 8.800000e-02 -1.954637e-01
         vertex 6.511378e-03 1.480000e-01 -1.954637e-01
         vertex 5.463695e-03 8.800000e-02 -1.965114e-01
      endloop
   endfacet
   facet normal -7.071027e-01 0.000000e+00 7.071109e-01
      outer loop
         vertex 5.463695e-03 8.800000e-02 -1.965114e-01
         vertex 6.511378e-03 1.480000e-01 -1.954637e-01
         vertex 5.463695e-03 1.480000e-01 -1.965114e-01
      endloop
   endfacet
   facet normal -5.735787e-01 0.000000e+00 8.191505e-01
      outer loop
         vertex 5.463695e-03 8.800000e-02 -1.965114e-01
         vertex 5.463695e-03 1.480000e-01 -1.965114e-01
         vertex 4.250000e-03 8.800000e-02 -1.973612e-01
      endloop
   endfacet
   facet normal -5.735787e-01 0.000000e+00 8.191505e-01
      outer loop
         vertex 4.250000e-03 8.800000e-02 -1.973612e-01
         vertex 5.463695e-03 1.480000e-01 -1.965114e-01
         vertex 4.250000e-03 1.480000e-01 -1.973612e-01
      endloop
   endfacet
   facet normal -4.226211e-01 0.000000e+00 9.063065e-01
      outer loop
         vertex 4.250000e-03 8.800000e-02 -1.973612e-01
         vertex 4.250000e-03 1.480000e-01 -1.973612e-01
         vertex 2.907171e-03 8.800000e-02 -1.979874e-01
      endloop
   endfacet
   facet normal -4.226211e-01 0.000000e+00 9.063065e-01
      outer loop
         vertex 2.907171e-03 8.800000e-02 -1.979874e-01
         vertex 4.250000e-03 1.480000e-01 -1.973612e-01
         vertex 2.907171e-03 1.480000e-01 -1.979874e-01
      endloop
   endfacet
   facet normal -2.588114e-01 0.000000e+00 9.659279e-01
      outer loop
         vertex 2.907171e-03 8.800000e-02 -1.979874e-01
         vertex 2.907171e-03 1.480000e-01 -1.979874e-01
         vertex 1.476009e-03 8.800000e-02 -1.983709e-01
      endloop
   endfacet
   facet normal -2.588114e-01 0.000000e+00 9.659279e-01
      outer loop
         vertex 1.476009e-03 8.800000e-02 -1.983709e-01
         vertex 2.907171e-03 1.480000e-01 -1.979874e-01
         vertex 1.476009e-03 1.480000e-01 -1.983709e-01
      endloop
   endfacet
   facet normal -8.716530e-02 0.000000e+00 9.961939e-01
      outer loop
         vertex 1.476009e-03 8.800000e-02 -1.983709e-01
         vertex 1.476009e-03 1.480000e-01 -1.983709e-01
         vertex 4.408728e-17 8.800000e-02 -1.985000e-01
      endloop
   endfacet
   facet normal -8.716530e-02 -3.024487e-18 9.961939e-01
      outer loop
         vertex 4.408728e-17 8.800000e-02 -1.985000e-01
         vertex 1.476009e-03 1.480000e-01 -1.983709e-01
         vertex 4.200539e-17 1.480000e-01 -1.985000e-01
      endloop
   endfacet
   facet normal 8.716530e-02 3.024487e-18 9.961939e-01
      outer loop
         vertex 4.408728e-17 8.800000e-02 -1.985000e-01
         vertex 4.200539e-17 1.480000e-01 -1.985000e-01
         vertex -1.476009e-03 8.800000e-02 -1.983709e-01
      endloop
   endfacet
   facet normal 8.716530e-02 -0.000000e+00 9.961939e-01
      outer loop
         vertex -1.476009e-03 8.800000e-02 -1.983709e-01
         vertex 4.200539e-17 1.480000e-01 -1.985000e-01
         vertex -1.476009e-03 1.480000e-01 -1.983709e-01
      endloop
   endfacet
   facet normal 2.588114e-01 -0.000000e+00 9.659279e-01
      outer loop
         vertex -1.476009e-03 8.800000e-02 -1.983709e-01
         vertex -1.476009e-03 1.480000e-01 -1.983709e-01
         vertex -2.907171e-03 8.800000e-02 -1.979874e-01
      endloop
   endfacet
   facet normal 2.588114e-01 -0.000000e+00 9.659279e-01
      outer loop
         vertex -2.907171e-03 8.800000e-02 -1.979874e-01
         vertex -1.476009e-03 1.480000e-01 -1.983709e-01
         vertex -2.907171e-03 1.480000e-01 -1.979874e-01
      endloop
   endfacet
   facet normal 4.226211e-01 -0.000000e+00 9.063065e-01
      outer loop
         vertex -2.907171e-03 8.800000e-02 -1.979874e-01
         vertex -2.907171e-03 1.480000e-01 -1.979874e-01
         vertex -4.250000e-03 8.800000e-02 -1.973612e-01
      endloop
   endfacet
   facet normal 4.226211e-01 -0.000000e+00 9.063065e-01
      outer loop
         vertex -4.250000e-03 8.800000e-02 -1.973612e-01
         vertex -2.907171e-03 1.480000e-01 -1.979874e-01
         vertex -4.250000e-03 1.480000e-01 -1.973612e-01
      endloop
   endfacet
   facet normal 5.735787e-01 -0.000000e+00 8.191505e-01
      outer loop
         vertex -4.250000e-03 8.800000e-02 -1.973612e-01
         vertex -4.250000e-03 1.480000e-01 -1.973612e-01
         vertex -5.463695e-03 8.800000e-02 -1.965114e-01
      endloop
   endfacet
   facet normal 5.735787e-01 -0.000000e+00 8.191505e-01
      outer loop
         vertex -5.463695e-03 8.800000e-02 -1.965114e-01
         vertex -4.250000e-03 1.480000e-01 -1.973612e-01
         vertex -5.463695e-03 1.480000e-01 -1.965114e-01
      endloop
   endfacet
   facet normal 7.071027e-01 -0.000000e+00 7.071109e-01
      outer loop
         vertex -5.463695e-03 8.800000e-02 -1.965114e-01
         vertex -5.463695e-03 1.480000e-01 -1.965114e-01
         vertex -6.511378e-03 8.800000e-02 -1.954637e-01
      endloop
   endfacet
   facet normal 7.071027e-01 -0.000000e+00 7.071109e-01
      outer loop
         vertex -6.511378e-03 8.800000e-02 -1.954637e-01
         vertex -5.463695e-03 1.480000e-01 -1.965114e-01
         vertex -6.511378e-03 1.480000e-01 -1.954637e-01
      endloop
   endfacet
   facet normal 8.191531e-01 -0.000000e+00 5.735750e-01
      outer loop
         vertex -6.511378e-03 8.800000e-02 -1.954637e-01
         vertex -6.511378e-03 1.480000e-01 -1.954637e-01
         vertex -7.361216e-03 8.800000e-02 -1.942500e-01
      endloop
   endfacet
   facet normal 8.191531e-01 -0.000000e+00 5.735750e-01
      outer loop
         vertex -7.361216e-03 8.800000e-02 -1.942500e-01
         vertex -6.511378e-03 1.480000e-01 -1.954637e-01
         vertex -7.361216e-03 1.480000e-01 -1.942500e-01
      endloop
   endfacet
   facet normal 9.063083e-01 -0.000000e+00 4.226172e-01
      outer loop
         vertex -7.361216e-03 8.800000e-02 -1.942500e-01
         vertex -7.361216e-03 1.480000e-01 -1.942500e-01
         vertex -7.987387e-03 8.800000e-02 -1.929072e-01
      endloop
   endfacet
   facet normal 9.063083e-01 -0.000000e+00 4.226172e-01
      outer loop
         vertex -7.987387e-03 8.800000e-02 -1.929072e-01
         vertex -7.361216e-03 1.480000e-01 -1.942500e-01
         vertex -7.987387e-03 1.480000e-01 -1.929072e-01
      endloop
   endfacet
   facet normal 9.659261e-01 -0.000000e+00 2.588181e-01
      outer loop
         vertex -7.987387e-03 8.800000e-02 -1.929072e-01
         vertex -7.987387e-03 1.480000e-01 -1.929072e-01
         vertex -8.370866e-03 8.800000e-02 -1.914760e-01
      endloop
   endfacet
   facet normal 9.659261e-01 -0.000000e+00 2.588181e-01
      outer loop
         vertex -8.370866e-03 8.800000e-02 -1.914760e-01
         vertex -7.987387e-03 1.480000e-01 -1.929072e-01
         vertex -8.370866e-03 1.480000e-01 -1.914760e-01
      endloop
   endfacet
   facet normal 9.961947e-01 -0.000000e+00 8.715622e-02
      outer loop
         vertex -8.370866e-03 8.800000e-02 -1.914760e-01
         vertex -8.370866e-03 1.480000e-01 -1.914760e-01
         vertex -8.500000e-03 8.800000e-02 -1.900000e-01
      endloop
   endfacet
   facet normal 9.961947e-01 -0.000000e+00 8.715622e-02
      outer loop
         vertex -8.500000e-03 8.800000e-02 -1.900000e-01
         vertex -8.370866e-03 1.480000e-01 -1.914760e-01
         vertex -8.500000e-03 1.480000e-01 -1.900000e-01
      endloop
   endfacet
   facet normal 9.961947e-01 0.000000e+00 -8.715622e-02
      outer loop
         vertex -8.500000e-03 8.800000e-02 -1.900000e-01
         vertex -8.500000e-03 1.480000e-01 -1.900000e-01
         vertex -8.370866e-03 1.480000e-01 -1.885240e-01
      endloop
   endfacet
endsolid body